<?xml version="1.0" encoding="utf-8"?>
<svg version="1.1" xmlns:xlink="http://www.w3.org/1999/xlink" width="15px" height="15px" xmlns="http://www.w3.org/2000/svg">
  <g transform="matrix(1 0 0 1 -8 -13 )">
    <path d="M 7.49999936137885 0  C 3.3816960066253112 0  0 3.381696294575015  0 7.5  C 0 11.618303705424985  3.3482140576353037 15  7.49999936137885 15  C 11.651784665122396 15  15 11.651785657265965  15 7.5  C 15 3.381696294575015  11.618302716132387 0  7.49999936137885 0  Z M 8.437499042068275 6.294643347512711  C 8.437499042068275 6.294643347512711  8.437499042068275 11.651785657265965  8.437499042068275 11.651785657265965  C 8.437499042068275 12.020089242949473  8.337052875787677 12.287946374402667  8.16964217290591 12.488839242949473  C 8.002231470024144 12.68973211149628  7.767856489981055 12.790177767450091  7.49999936137885 12.790177767450091  C 7.232142232776643 12.790177767450091  6.997767252733554 12.68973211149628  6.830356549851789 12.488839242949473  C 6.662945846970024 12.287946374402667  6.562499680689425 12.020089242949473  6.562499680689425 11.651785657265965  C 6.562499680689425 11.651785657265965  6.562499680689425 6.361607251194668  6.562499680689425 6.361607251194668  C 6.562499680689425 5.993303665511159  6.662945846970024 5.7254465340579666  6.830356549851789 5.524553665511159  C 6.997767252733554 5.323660796964353  7.232142232776643 5.256696773540918  7.49999936137885 5.256696773540918  C 7.767856489981055 5.256696773540918  8.002231470024144 5.357142948374458  8.16964217290591 5.524553665511159  C 8.337052875787677 5.691964382647861  8.437499042068275 5.959821913239307  8.437499042068275 6.294643347512711  Z M 8.16964217290591 4.151785976576566  C 7.968749321465027 4.319196693713268  7.767856489981055 4.386160916705829  7.49999936137885 4.386160916705829  C 7.232142232776643 4.386160916705829  7.031249401292671 4.319196693713268  6.830356549851789 4.151785976576566  C 6.629463698410906 3.9843752594398647  6.562499680689425 3.783482390893057  6.562499680689425 3.482143108029759  C 6.562499680689425 3.2142859566196536  6.662945846970024 3.0133929084606326  6.830356549851789 2.8459821913239307  C 7.031249401292671 2.678571474187229  7.232142232776643 2.578125139698389  7.49999936137885 2.578125139698389  C 7.734374341421938 2.578125139698389  7.935267053164444 2.64508952234625  8.136159904605327 2.8125002394829517  C 8.337052756046209 2.9799109566196536  8.404017412388841 3.180803825166461  8.404017412388841 3.482143108029759  C 8.437499553464116 3.783482390893057  8.337052875787677 3.9843752594398647  8.16964217290591 4.151785976576566  Z " fill-rule="nonzero" fill="#222222" stroke="none" transform="matrix(1 0 0 1 8 13 )" />
  </g>
</svg>